<svg xmlns="http://www.w3.org/2000/svg" width="32" height="32" viewBox="0 0 32 32" fill="none">
  <rect width="32" height="32" rx="6" fill="#272E33"/>
  <path d="M24.8288 7.17125a4 4 0 0 0-5.64875-.0075l-1.57125 1.51875a1 1 0 0 1-1.4475-1.375l1.465-1.53625a.2.2 0 0 1 .01625-.01625a6 6 0 0 1 8.485 8.485a.2.2 0 0 1-.01625.01625l-1.53625 1.465a1 1 0 0 1-1.375-1.4475l1.52625-1.45625a4 4 0 0 0-.0075-5.64875ZM14.2763 23.31l-1.45625 1.52625a4 4 0 0 1-5.65625-5.65625l1.52625-1.45625a1 1 0 0 0-1.375-1.4475l-1.53625 1.465a.2.2 0 0 0-.01625.01625a6 6 0 0 0 8.485 8.485a.2.2 0 0 0 .01625-.01625l1.465-1.53625a1 1 0 1 0-1.4475-1.375ZM27 19H24a1 1 0 1 0 0 2h3a1 1 0 1 0 0-2ZM5 13H8a1 1 0 1 0 0-2H5a1 1 0 1 0 0 2ZM20 23a1 1 0 0 0-1 1v3a1 1 0 1 0 2 0v-3a1 1 0 0 0-1-1ZM12 9a1 1 0 0 0 1-1V5a1 1 0 1 0-2 0V8a1 1 0 0 0 1 1Z" fill="#DFA000"/>
</svg>
